solid Exported from Blender-2.79 (sub 0)
facet normal 0.447214 -0.447214 -0.774597
outer loop
vertex 0.000000 0.000000 -1.250000
vertex 1.082532 0.000000 -0.625000
vertex 0.974279 -0.216506 -0.562500
endloop
endfacet
facet normal 0.447214 -0.447214 -0.774597
outer loop
vertex 0.974279 -0.216506 -0.562500
vertex 0.000000 -0.216506 -1.125000
vertex 0.000000 0.000000 -1.250000
endloop
endfacet
facet normal 0.000000 -1.000000 0.000000
outer loop
vertex 0.000000 -0.216506 -1.125000
vertex 0.974279 -0.216506 -0.562500
vertex 0.757772 -0.216506 -0.437500
endloop
endfacet
facet normal 0.000000 -1.000000 0.000000
outer loop
vertex 0.757772 -0.216506 -0.437500
vertex 0.000000 -0.216506 -0.875000
vertex 0.000000 -0.216506 -1.125000
endloop
endfacet
facet normal -0.447214 -0.447214 0.774597
outer loop
vertex 0.000000 -0.216506 -0.875000
vertex 0.757772 -0.216506 -0.437500
vertex 0.649519 -0.000000 -0.375000
endloop
endfacet
facet normal -0.447214 -0.447214 0.774597
outer loop
vertex 0.649519 -0.000000 -0.375000
vertex 0.000000 -0.000000 -0.750000
vertex 0.000000 -0.216506 -0.875000
endloop
endfacet
facet normal -0.447214 0.447214 0.774597
outer loop
vertex 0.000000 -0.000000 -0.750000
vertex 0.649519 -0.000000 -0.375000
vertex 0.757772 0.216506 -0.437500
endloop
endfacet
facet normal -0.447214 0.447214 0.774597
outer loop
vertex 0.757772 0.216506 -0.437500
vertex 0.000000 0.216506 -0.875000
vertex 0.000000 -0.000000 -0.750000
endloop
endfacet
facet normal 0.000000 1.000000 0.000000
outer loop
vertex 0.000000 0.216506 -0.875000
vertex 0.757772 0.216506 -0.437500
vertex 0.974279 0.216506 -0.562500
endloop
endfacet
facet normal 0.000000 1.000000 0.000000
outer loop
vertex 0.974279 0.216506 -0.562500
vertex 0.000000 0.216506 -1.125000
vertex 0.000000 0.216506 -0.875000
endloop
endfacet
facet normal 0.447214 0.447214 -0.774597
outer loop
vertex 1.082532 0.000000 -0.625000
vertex 0.000000 0.000000 -1.250000
vertex 0.000000 0.216506 -1.125000
endloop
endfacet
facet normal 0.447214 0.447214 -0.774597
outer loop
vertex 0.000000 0.216506 -1.125000
vertex 0.974279 0.216506 -0.562500
vertex 1.082532 0.000000 -0.625000
endloop
endfacet
facet normal 0.894427 -0.447215 -0.000000
outer loop
vertex 1.082532 0.000000 -0.625000
vertex 1.082532 0.000000 0.625000
vertex 0.974279 -0.216506 0.562500
endloop
endfacet
facet normal 0.894427 -0.447213 -0.000000
outer loop
vertex 0.974279 -0.216506 0.562500
vertex 0.974279 -0.216506 -0.562500
vertex 1.082532 0.000000 -0.625000
endloop
endfacet
facet normal 0.000000 -1.000000 0.000000
outer loop
vertex 0.974279 -0.216506 -0.562500
vertex 0.974279 -0.216506 0.562500
vertex 0.757772 -0.216506 0.437500
endloop
endfacet
facet normal 0.000000 -1.000000 0.000000
outer loop
vertex 0.757772 -0.216506 0.437500
vertex 0.757772 -0.216506 -0.437500
vertex 0.974279 -0.216506 -0.562500
endloop
endfacet
facet normal -0.894427 -0.447214 0.000000
outer loop
vertex 0.757772 -0.216506 -0.437500
vertex 0.757772 -0.216506 0.437500
vertex 0.649519 -0.000000 0.375000
endloop
endfacet
facet normal -0.894427 -0.447214 0.000000
outer loop
vertex 0.649519 -0.000000 0.375000
vertex 0.649519 -0.000000 -0.375000
vertex 0.757772 -0.216506 -0.437500
endloop
endfacet
facet normal -0.894427 0.447214 0.000000
outer loop
vertex 0.649519 -0.000000 -0.375000
vertex 0.649519 -0.000000 0.375000
vertex 0.757772 0.216506 0.437500
endloop
endfacet
facet normal -0.894427 0.447214 0.000000
outer loop
vertex 0.757772 0.216506 0.437500
vertex 0.757772 0.216506 -0.437500
vertex 0.649519 -0.000000 -0.375000
endloop
endfacet
facet normal 0.000000 1.000000 0.000000
outer loop
vertex 0.757772 0.216506 -0.437500
vertex 0.757772 0.216506 0.437500
vertex 0.974279 0.216506 0.562500
endloop
endfacet
facet normal 0.000000 1.000000 -0.000000
outer loop
vertex 0.974279 0.216506 0.562500
vertex 0.974279 0.216506 -0.562500
vertex 0.757772 0.216506 -0.437500
endloop
endfacet
facet normal 0.894427 0.447214 -0.000000
outer loop
vertex 0.974279 0.216506 -0.562500
vertex 0.974279 0.216506 0.562500
vertex 1.082532 0.000000 0.625000
endloop
endfacet
facet normal 0.894427 0.447214 -0.000000
outer loop
vertex 1.082532 0.000000 0.625000
vertex 1.082532 0.000000 -0.625000
vertex 0.974279 0.216506 -0.562500
endloop
endfacet
facet normal 0.447214 -0.447214 0.774597
outer loop
vertex 1.082532 0.000000 0.625000
vertex 0.000000 0.000000 1.250000
vertex 0.000000 -0.216506 1.125000
endloop
endfacet
facet normal 0.447214 -0.447214 0.774597
outer loop
vertex 0.000000 -0.216506 1.125000
vertex 0.974279 -0.216506 0.562500
vertex 1.082532 0.000000 0.625000
endloop
endfacet
facet normal 0.000000 -1.000000 -0.000000
outer loop
vertex 0.974279 -0.216506 0.562500
vertex 0.000000 -0.216506 1.125000
vertex 0.000000 -0.216506 0.875000
endloop
endfacet
facet normal 0.000000 -1.000000 0.000000
outer loop
vertex 0.000000 -0.216506 0.875000
vertex 0.757772 -0.216506 0.437500
vertex 0.974279 -0.216506 0.562500
endloop
endfacet
facet normal -0.447214 -0.447214 -0.774597
outer loop
vertex 0.757772 -0.216506 0.437500
vertex 0.000000 -0.216506 0.875000
vertex 0.000000 -0.000000 0.750000
endloop
endfacet
facet normal -0.447214 -0.447214 -0.774597
outer loop
vertex 0.000000 -0.000000 0.750000
vertex 0.649519 -0.000000 0.375000
vertex 0.757772 -0.216506 0.437500
endloop
endfacet
facet normal -0.447214 0.447214 -0.774597
outer loop
vertex 0.649519 -0.000000 0.375000
vertex 0.000000 -0.000000 0.750000
vertex 0.000000 0.216506 0.875000
endloop
endfacet
facet normal -0.447214 0.447214 -0.774597
outer loop
vertex 0.000000 0.216506 0.875000
vertex 0.757772 0.216506 0.437500
vertex 0.649519 -0.000000 0.375000
endloop
endfacet
facet normal 0.000000 1.000000 0.000000
outer loop
vertex 0.757772 0.216506 0.437500
vertex 0.000000 0.216506 0.875000
vertex 0.000000 0.216506 1.125000
endloop
endfacet
facet normal 0.000000 1.000000 -0.000000
outer loop
vertex 0.000000 0.216506 1.125000
vertex 0.974279 0.216506 0.562500
vertex 0.757772 0.216506 0.437500
endloop
endfacet
facet normal 0.447214 0.447214 0.774597
outer loop
vertex 0.974279 0.216506 0.562500
vertex 0.000000 0.216506 1.125000
vertex 0.000000 0.000000 1.250000
endloop
endfacet
facet normal 0.447214 0.447214 0.774597
outer loop
vertex 0.000000 0.000000 1.250000
vertex 1.082532 0.000000 0.625000
vertex 0.974279 0.216506 0.562500
endloop
endfacet
facet normal -0.447214 -0.447214 0.774597
outer loop
vertex 0.000000 0.000000 1.250000
vertex -1.082532 0.000000 0.625000
vertex -0.974279 -0.216506 0.562500
endloop
endfacet
facet normal -0.447214 -0.447214 0.774597
outer loop
vertex -0.974279 -0.216506 0.562500
vertex 0.000000 -0.216506 1.125000
vertex 0.000000 0.000000 1.250000
endloop
endfacet
facet normal 0.000000 -1.000000 0.000000
outer loop
vertex 0.000000 -0.216506 1.125000
vertex -0.974279 -0.216506 0.562500
vertex -0.757772 -0.216506 0.437500
endloop
endfacet
facet normal 0.000000 -1.000000 -0.000000
outer loop
vertex -0.757772 -0.216506 0.437500
vertex 0.000000 -0.216506 0.875000
vertex 0.000000 -0.216506 1.125000
endloop
endfacet
facet normal 0.447214 -0.447214 -0.774597
outer loop
vertex 0.000000 -0.216506 0.875000
vertex -0.757772 -0.216506 0.437500
vertex -0.649519 -0.000000 0.375000
endloop
endfacet
facet normal 0.447214 -0.447214 -0.774597
outer loop
vertex -0.649519 -0.000000 0.375000
vertex 0.000000 -0.000000 0.750000
vertex 0.000000 -0.216506 0.875000
endloop
endfacet
facet normal 0.447214 0.447214 -0.774597
outer loop
vertex 0.000000 -0.000000 0.750000
vertex -0.649519 -0.000000 0.375000
vertex -0.757772 0.216506 0.437500
endloop
endfacet
facet normal 0.447214 0.447214 -0.774597
outer loop
vertex -0.757772 0.216506 0.437500
vertex 0.000000 0.216506 0.875000
vertex 0.000000 -0.000000 0.750000
endloop
endfacet
facet normal 0.000000 1.000000 0.000000
outer loop
vertex 0.000000 0.216506 0.875000
vertex -0.757772 0.216506 0.437500
vertex -0.974279 0.216506 0.562500
endloop
endfacet
facet normal 0.000000 1.000000 -0.000000
outer loop
vertex -0.974279 0.216506 0.562500
vertex 0.000000 0.216506 1.125000
vertex 0.000000 0.216506 0.875000
endloop
endfacet
facet normal -0.447214 0.447214 0.774597
outer loop
vertex 0.000000 0.216506 1.125000
vertex -0.974279 0.216506 0.562500
vertex -1.082532 0.000000 0.625000
endloop
endfacet
facet normal -0.447214 0.447214 0.774597
outer loop
vertex -1.082532 0.000000 0.625000
vertex 0.000000 0.000000 1.250000
vertex 0.000000 0.216506 1.125000
endloop
endfacet
facet normal -0.894427 -0.447214 -0.000000
outer loop
vertex -1.082532 0.000000 0.625000
vertex -1.082532 0.000000 -0.625000
vertex -0.974279 -0.216506 -0.562500
endloop
endfacet
facet normal -0.894427 -0.447214 -0.000000
outer loop
vertex -0.974279 -0.216506 -0.562500
vertex -0.974279 -0.216506 0.562500
vertex -1.082532 0.000000 0.625000
endloop
endfacet
facet normal 0.000000 -1.000000 -0.000000
outer loop
vertex -0.974279 -0.216506 0.562500
vertex -0.974279 -0.216506 -0.562500
vertex -0.757772 -0.216506 -0.437500
endloop
endfacet
facet normal 0.000000 -1.000000 0.000000
outer loop
vertex -0.757772 -0.216506 -0.437500
vertex -0.757772 -0.216506 0.437500
vertex -0.974279 -0.216506 0.562500
endloop
endfacet
facet normal 0.894427 -0.447214 0.000000
outer loop
vertex -0.757772 -0.216506 0.437500
vertex -0.757772 -0.216506 -0.437500
vertex -0.649519 -0.000000 -0.375000
endloop
endfacet
facet normal 0.894427 -0.447214 0.000000
outer loop
vertex -0.649519 -0.000000 -0.375000
vertex -0.649519 -0.000000 0.375000
vertex -0.757772 -0.216506 0.437500
endloop
endfacet
facet normal 0.894427 0.447214 0.000000
outer loop
vertex -0.649519 -0.000000 0.375000
vertex -0.649519 -0.000000 -0.375000
vertex -0.757772 0.216506 -0.437500
endloop
endfacet
facet normal 0.894427 0.447214 0.000000
outer loop
vertex -0.757772 0.216506 -0.437500
vertex -0.757772 0.216506 0.437500
vertex -0.649519 -0.000000 0.375000
endloop
endfacet
facet normal 0.000000 1.000000 0.000000
outer loop
vertex -0.757772 0.216506 0.437500
vertex -0.757772 0.216506 -0.437500
vertex -0.974279 0.216506 -0.562500
endloop
endfacet
facet normal 0.000000 1.000000 0.000000
outer loop
vertex -0.974279 0.216506 -0.562500
vertex -0.974279 0.216506 0.562500
vertex -0.757772 0.216506 0.437500
endloop
endfacet
facet normal -0.894427 0.447213 -0.000000
outer loop
vertex -0.974279 0.216506 0.562500
vertex -0.974279 0.216506 -0.562500
vertex -1.082532 0.000000 -0.625000
endloop
endfacet
facet normal -0.894427 0.447215 -0.000000
outer loop
vertex -1.082532 0.000000 -0.625000
vertex -1.082532 0.000000 0.625000
vertex -0.974279 0.216506 0.562500
endloop
endfacet
facet normal -0.447214 -0.447214 -0.774597
outer loop
vertex -1.082532 0.000000 -0.625000
vertex 0.000000 0.000000 -1.250000
vertex 0.000000 -0.216506 -1.125000
endloop
endfacet
facet normal -0.447214 -0.447214 -0.774597
outer loop
vertex 0.000000 -0.216506 -1.125000
vertex -0.974279 -0.216506 -0.562500
vertex -1.082532 0.000000 -0.625000
endloop
endfacet
facet normal 0.000000 -1.000000 0.000000
outer loop
vertex -0.974279 -0.216506 -0.562500
vertex 0.000000 -0.216506 -1.125000
vertex 0.000000 -0.216506 -0.875000
endloop
endfacet
facet normal 0.000000 -1.000000 0.000000
outer loop
vertex 0.000000 -0.216506 -0.875000
vertex -0.757772 -0.216506 -0.437500
vertex -0.974279 -0.216506 -0.562500
endloop
endfacet
facet normal 0.447214 -0.447214 0.774597
outer loop
vertex -0.757772 -0.216506 -0.437500
vertex 0.000000 -0.216506 -0.875000
vertex 0.000000 -0.000000 -0.750000
endloop
endfacet
facet normal 0.447214 -0.447214 0.774597
outer loop
vertex 0.000000 -0.000000 -0.750000
vertex -0.649519 -0.000000 -0.375000
vertex -0.757772 -0.216506 -0.437500
endloop
endfacet
facet normal 0.447214 0.447214 0.774597
outer loop
vertex -0.649519 -0.000000 -0.375000
vertex 0.000000 -0.000000 -0.750000
vertex 0.000000 0.216506 -0.875000
endloop
endfacet
facet normal 0.447214 0.447214 0.774597
outer loop
vertex 0.000000 0.216506 -0.875000
vertex -0.757772 0.216506 -0.437500
vertex -0.649519 -0.000000 -0.375000
endloop
endfacet
facet normal 0.000000 1.000000 0.000000
outer loop
vertex -0.757772 0.216506 -0.437500
vertex 0.000000 0.216506 -0.875000
vertex 0.000000 0.216506 -1.125000
endloop
endfacet
facet normal 0.000000 1.000000 0.000000
outer loop
vertex 0.000000 0.216506 -1.125000
vertex -0.974279 0.216506 -0.562500
vertex -0.757772 0.216506 -0.437500
endloop
endfacet
facet normal -0.447214 0.447214 -0.774597
outer loop
vertex 0.000000 0.000000 -1.250000
vertex -1.082532 0.000000 -0.625000
vertex -0.974279 0.216506 -0.562500
endloop
endfacet
facet normal -0.447214 0.447214 -0.774597
outer loop
vertex -0.974279 0.216506 -0.562500
vertex 0.000000 0.216506 -1.125000
vertex 0.000000 0.000000 -1.250000
endloop
endfacet
endsolid Exported from Blender-2.79 (sub 0)
